<?xml version="1.0" standalone="no"?>
<!DOCTYPE svg PUBLIC "-//W3C//DTD SVG 20010904//EN"
 "http://www.w3.org/TR/2001/REC-SVG-20010904/DTD/svg10.dtd">
<svg version="1.0" xmlns="http://www.w3.org/2000/svg"
 width="512.000000pt" height="512.000000pt" viewBox="0 0 512.000000 512.000000"
 preserveAspectRatio="xMidYMid meet">

<g transform="translate(0.000000,512.000000) scale(0.100000,-0.100000)"
fill="#000000" stroke="none">
<path d="M410 4836 c-131 -28 -227 -106 -288 -233 l-37 -78 -3 -253 c-3 -219
-1 -256 12 -278 l16 -24 240 0 c203 0 241 2 254 16 27 27 31 63 9 92 l-20 27
-187 3 -186 2 0 183 c0 207 9 248 64 314 19 21 58 52 87 68 47 26 64 30 134
30 67 0 88 -5 131 -27 29 -15 68 -46 87 -69 72 -84 67 76 67 -2028 0 -1192 4
-1918 10 -1956 22 -132 116 -257 240 -318 l65 -32 1810 0 1810 0 68 32 c83 39
163 117 201 195 34 69 54 176 40 215 -17 51 -33 53 -381 53 l-323 0 0 695 0
696 272 381 c149 210 280 404 292 432 15 39 20 75 20 151 1 92 -1 105 -31 168
-39 82 -110 154 -190 194 -53 26 -67 28 -173 28 -103 0 -121 -3 -171 -26 -32
-15 -79 -49 -106 -75 -43 -42 -891 -1211 -968 -1334 -32 -51 -80 -176 -89
-235 -4 -22 -15 -157 -25 -300 -21 -284 -19 -301 31 -319 23 -8 61 5 265 94
131 56 265 119 298 139 89 53 190 159 295 311 52 74 102 146 112 159 17 23 18
6 18 -568 l0 -591 -1305 0 c-975 0 -1311 -3 -1330 -12 -14 -6 -27 -21 -30 -32
-2 -12 -9 -46 -15 -77 -19 -99 -89 -183 -177 -215 -21 -7 -68 -13 -104 -14
-112 0 -205 58 -262 164 l-22 41 -5 1945 c-4 1498 -8 1953 -18 1980 -6 20 -28
62 -47 94 -19 32 -35 60 -35 62 0 2 702 4 1560 4 1546 0 1560 0 1614 -20 62
-24 125 -80 158 -142 22 -42 23 -52 28 -395 6 -391 5 -387 71 -385 64 2 64 0
67 340 2 169 -2 335 -7 370 -29 187 -172 332 -357 362 -92 15 -3484 12 -3554
-4z m4243 -1489 c114 -67 160 -221 102 -340 -34 -71 -51 -91 -67 -81 -21 13
-402 285 -412 295 -13 12 38 82 82 113 59 40 82 46 168 43 66 -3 89 -8 127
-30z m-250 -392 l208 -147 -24 -32 c-13 -17 -180 -254 -372 -526 -191 -272
-363 -511 -381 -530 l-33 -34 -64 44 c-35 25 -129 92 -210 150 l-146 105 21
35 c11 19 189 274 396 567 240 340 380 529 386 524 6 -4 104 -74 219 -156z
m-723 -1375 c0 -14 -376 -177 -386 -167 -7 7 21 402 30 416 6 10 356 -235 356
-249z m1200 -975 c-21 -55 -41 -85 -86 -124 -87 -76 33 -71 -1701 -69 l-1552
3 29 43 c25 37 35 63 65 160 4 9 338 12 1629 12 l1626 0 -10 -25z"/>
<path d="M1375 4074 c-45 -23 -76 -55 -96 -99 -16 -35 -19 -68 -19 -273 0
-256 2 -265 63 -330 50 -52 102 -62 324 -62 115 0 213 5 241 12 57 14 126 79
141 134 15 53 14 451 0 495 -17 51 -55 97 -99 119 -36 18 -59 20 -282 20 -201
0 -248 -3 -273 -16z m493 -140 c22 -15 22 -19 22 -226 0 -183 -2 -214 -17
-230 -15 -16 -35 -18 -220 -18 -122 0 -212 4 -224 10 -18 10 -19 23 -19 230 0
185 2 221 16 234 23 24 409 24 442 0z"/>
<path d="M2455 3953 c-54 -14 -73 -75 -35 -113 20 -20 33 -20 695 -20 l676 0
24 25 c30 29 32 55 6 86 l-19 24 -664 1 c-364 1 -672 0 -683 -3z"/>
<path d="M2420 3570 c-29 -29 -26 -74 6 -99 26 -21 36 -21 514 -21 478 0 488
0 514 21 32 25 35 70 6 99 -19 19 -33 20 -520 20 -487 0 -501 -1 -520 -20z"/>
<path d="M1407 2976 c-56 -16 -102 -55 -128 -111 -16 -35 -19 -67 -19 -270 0
-259 5 -283 73 -342 53 -47 115 -56 351 -51 192 3 203 4 246 28 24 14 58 45
75 68 l30 44 0 253 0 253 -30 44 c-17 23 -51 54 -75 68 -44 24 -51 25 -260 27
-155 2 -228 -1 -263 -11z m467 -152 c24 -23 24 -435 0 -458 -22 -22 -420 -24
-450 -2 -18 13 -19 28 -19 231 0 203 1 218 19 231 30 22 428 20 450 -2z"/>
<path d="M2450 2843 c-51 -19 -66 -77 -30 -113 20 -20 33 -20 590 -20 557 0
570 0 590 20 26 26 26 72 -1 96 -20 18 -46 19 -578 21 -306 1 -563 -1 -571 -4z"/>
<path d="M2416 2448 c-9 -12 -16 -32 -16 -43 0 -11 7 -31 16 -43 l15 -22 433
0 c407 0 434 1 449 18 22 25 21 75 -1 95 -17 15 -63 17 -450 17 l-431 0 -15
-22z"/>
<path d="M1408 1861 c-48 -16 -88 -45 -116 -85 l-27 -39 -3 -241 c-3 -271 2
-301 63 -355 55 -48 87 -53 346 -49 l236 3 40 27 c26 17 50 45 67 79 26 52 26
55 26 279 0 223 0 227 -26 278 -19 39 -38 59 -72 80 l-47 27 -230 2 c-126 1
-242 -2 -257 -6z m470 -153 c9 -9 12 -73 12 -227 0 -185 -2 -217 -17 -233 -15
-16 -35 -18 -225 -18 -195 0 -209 1 -228 20 -19 19 -20 33 -20 223 0 167 3
206 16 225 15 22 19 22 233 22 155 0 220 -3 229 -12z"/>
<path d="M2450 1733 c-51 -19 -66 -77 -30 -113 19 -19 33 -20 293 -20 253 0
275 1 290 18 17 19 22 68 9 88 -20 30 -55 34 -299 33 -136 0 -255 -3 -263 -6z"/>
<path d="M2416 1338 c-22 -31 -20 -64 4 -88 19 -19 33 -20 273 -20 233 0 255
1 270 18 22 25 21 75 -1 95 -16 15 -50 17 -275 17 -253 0 -256 0 -271 -22z"/>
</g>
</svg>
